# xmcd
#
# Track frame offsets:
#       150
#       16278
#       30979
#       44694
#       64802
#       74356
#       101094
#       112494
#       129235
#       143533
#       153957
#       170732
#       184953
#       200931
#       224055
#       240283
#       251254
#       270974
#       288616
#       312488
#
# Disc length: 4465 seconds
#
# Revision: 0
# Processed by: cddbd v1.4PL0 Copyright (c) Steve Scherf et al.
# Submitted via: WhereIsIt 3.22
#
DISCID=33116f14
DTITLE=John Mayal - Greatest Hits
DYEAR=1900
DGENRE=
TTITLE0=All Your Love
TTITLE1=Hideaway
TTITLE2=Double Crossin' Time
TTITLE3=What'd I Say
TTITLE4=Key To Love
TTITLE5=Have You Heard
TTITLE6=Please Don't Tell
TTITLE7=Down The Line
TTITLE8=No More Tears
TTITLE9=Catch That Train
TTITLE10=Brown Sugar
TTITLE11=Don't Kick Me
TTITLE12=Oh Pretty Woman
TTITLE13=My Time After Awhile
TTITLE14=Snowy Wood
TTITLE15=Man Of Stone
TTITLE16=The Death of J.B. Lenoir
TTITLE17=Checkin' up My Baby
TTITLE18=Saw Mill Gulch Road (live)
TTITLE19=Room To Move (live)
EXTD=
EXTT0=
EXTT1=
EXTT2=
EXTT3=
EXTT4=
EXTT5=
EXTT6=
EXTT7=
EXTT8=
EXTT9=
EXTT10=
EXTT11=
EXTT12=
EXTT13=
EXTT14=
EXTT15=
EXTT16=
EXTT17=
EXTT18=
EXTT19=
PLAYORDER=
